<svg xmlns="http://www.w3.org/2000/svg" width="133.518" height="33.326" viewBox="0 0 133.518 33.326"><defs><style>.a{fill:#fff;}</style></defs><g transform="translate(126.74 24.306)"><path class="a" d="M355.708,599.287h2.029v2.629h.643v-4.729a.63.63,0,0,0-.069-.3.3.3,0,0,0-.3-.133h-.277v2h-2.029Z" transform="translate(-351.631 -596.756)"/><path class="a" d="M353.393,599.473a3.489,3.489,0,0,0,.959,1.158,5.607,5.607,0,0,0,1.4.8v-.6a4.377,4.377,0,0,1-.8-.43,3.392,3.392,0,0,1-.643-.567,2.628,2.628,0,0,1-.43-.674,1.9,1.9,0,0,1-.158-.772v-.753h1.929v-.528h-4.513v.528h1.921v.762a2.157,2.157,0,0,1-.159.826,2.572,2.572,0,0,1-.43.7,3.344,3.344,0,0,1-.638.572,4.174,4.174,0,0,1-.792.43v.6a5.3,5.3,0,0,0,1.4-.811A3.454,3.454,0,0,0,353.393,599.473Z" transform="translate(-351.038 -596.804)"/><path class="a" d="M357.84,604.036a1.432,1.432,0,0,0-.49-.577,2.541,2.541,0,0,0-.86-.371,5.273,5.273,0,0,0-1.276-.133,5.336,5.336,0,0,0-1.282.133,2.487,2.487,0,0,0-.86.371,1.441,1.441,0,0,0-.485.577,1.952,1.952,0,0,0,0,1.514,1.444,1.444,0,0,0,.485.578,2.5,2.5,0,0,0,.86.371,5.381,5.381,0,0,0,1.282.132,5.317,5.317,0,0,0,1.276-.132,2.558,2.558,0,0,0,.86-.371,1.435,1.435,0,0,0,.49-.578,1.942,1.942,0,0,0,0-1.514ZM356.8,605.8a4.3,4.3,0,0,1-3.169,0,1.187,1.187,0,0,1,0-2.013,4.3,4.3,0,0,1,3.169,0,1.187,1.187,0,0,1,0,2.013Z" transform="translate(-351.215 -597.61)"/></g><g transform="translate(0 0.216)"><path class="a" d="M213.914,589.967q2.332,0,5.118-.223a47.459,47.459,0,0,0,5.267-.706v2.936q-1.016.224-2.333.409t-2.709.335q-1.392.149-2.766.241t-2.5.093h-5.229a3.112,3.112,0,0,1-2.164-.669,2.738,2.738,0,0,1-.733-2.118V570.756H221.1v3.084H209.7v16.127Zm17.007,11.966h-1.355a3.1,3.1,0,0,1-1.223-.2,1.845,1.845,0,0,1-1.11-1.226,2.742,2.742,0,0,1-.113-.762V568.861h1.58a2,2,0,0,1,1.769.668,2.487,2.487,0,0,1,.451,1.412Z" transform="translate(-205.862 -568.823)"/><path class="a" d="M248.97,593.231q-4.515,0-6.565-2.787t-2.052-8.658q0-5.834,2.052-8.621t6.565-2.786q4.139,0,6.209,2.378t2.369,7.4h6.059V568.817h1.73a1.9,1.9,0,0,1,1.674.632,2.769,2.769,0,0,1,.433,1.6v30.88h-1.355a3.092,3.092,0,0,1-1.222-.2,2.115,2.115,0,0,1-.753-.52,1.807,1.807,0,0,1-.4-.706,2.742,2.742,0,0,1-.113-.762V583.347h-6.059q-.263,4.906-2.238,7.394T248.97,593.231Zm0-3.27a5.252,5.252,0,0,0,2.408-.483,3.488,3.488,0,0,0,1.487-1.486,7.661,7.661,0,0,0,.771-2.545,25.572,25.572,0,0,0,.226-3.66,21.932,21.932,0,0,0-.283-3.828,7.214,7.214,0,0,0-.883-2.526,3.431,3.431,0,0,0-1.524-1.375,6.13,6.13,0,0,0-4.4,0,3.436,3.436,0,0,0-1.524,1.375,7.2,7.2,0,0,0-.883,2.526,21.943,21.943,0,0,0-.282,3.828,22.177,22.177,0,0,0,.282,3.865,7.189,7.189,0,0,0,.883,2.527,3.425,3.425,0,0,0,1.524,1.375A5.39,5.39,0,0,0,248.97,589.961Z" transform="translate(-210.242 -568.817)"/><path class="a" d="M290.982,570.75a2.589,2.589,0,0,1,2.013.575,2.978,2.978,0,0,1,.471,1.877v17.28a3.548,3.548,0,0,1-.584,2.136,2.621,2.621,0,0,1-2.238.8h-10.5a3.018,3.018,0,0,1-1.843-.483,2.065,2.065,0,0,1-.64-1.747V570.75Zm-9.519,19.62h8.2V573.8h-8.2ZM303.1,601.927h-1.355a3.1,3.1,0,0,1-1.222-.2,1.845,1.845,0,0,1-1.11-1.226,2.742,2.742,0,0,1-.113-.762V568.817h1.58a2,2,0,0,1,1.768.669,2.482,2.482,0,0,1,.452,1.412Z" transform="translate(-214.98 -568.817)"/></g><g transform="translate(96.034)"><path class="a" d="M332.417,587.551v7.43h-2.445v-7.43H315.865v-2.007h29.08v2.007ZM330.461,575.7a13.052,13.052,0,0,1-4.213,4.012,20.906,20.906,0,0,1-6.658,2.6V580.12a18.532,18.532,0,0,0,3.856-1.318,14.081,14.081,0,0,0,3.028-1.914,8.028,8.028,0,0,0,1.975-2.4,5.85,5.85,0,0,0,.7-2.767v-3.156h1.241a1.156,1.156,0,0,1,1.128.5,2.4,2.4,0,0,1,.264,1.135v1.524a5.848,5.848,0,0,0,.7,2.767,8.053,8.053,0,0,0,1.975,2.4,14.093,14.093,0,0,0,3.029,1.914,18.514,18.514,0,0,0,3.856,1.318v2.192a20.876,20.876,0,0,1-6.658-2.6A13.029,13.029,0,0,1,330.461,575.7Zm11.1,26.006H322.3a2.762,2.762,0,0,1-1.467-.369,1.446,1.446,0,0,1-.6-1.339v-8.321h1.353q1.091,0,1.091,1V599.7h18.885Z" transform="translate(-315.865 -568.566)"/></g></svg>