<svg xmlns="http://www.w3.org/2000/svg" width="32" height="32" viewBox="0 0 32 32"><defs><style>.a,.b,.d{fill:none;}.b,.c,.d{stroke:#000;}.b{stroke-miterlimit:10;}.b,.d{stroke-width:2px;}.c,.d{stroke-linecap:round;stroke-linejoin:round;}</style></defs><rect class="a" width="32" height="32"/><g transform="translate(24663.898 9687.496)"><g transform="translate(-24662 -9683.218)"><path class="b" d="M194,115.282a11.282,11.282,0,0,1,22.563,0" transform="translate(-191.18 -104)"/><path class="c" d="M205,119.4a4.7,4.7,0,1,0,0-9.4Z" transform="translate(-181.497 -99.719)"/><path class="c" d="M197.2,119.4a4.7,4.7,0,1,1,0-9.4Z" transform="translate(-192.5 -99.719)"/><path class="d" d="M208.641,114v3.281a2.36,2.36,0,0,1-2.36,2.36H203" transform="translate(-183.257 -96.197)"/><circle cx="1.5" cy="1.5" r="1.5" transform="translate(8 13.443)"/><circle cx="1.5" cy="1.5" r="1.5" transform="translate(13 13.443)"/><circle cx="1.5" cy="1.5" r="1.5" transform="translate(18 13.443)"/></g></g></svg>