<svg xmlns="http://www.w3.org/2000/svg" width="535" height="332" viewBox="0 0 535 332"><defs><style>.a,.c{fill:#fff;}.a{stroke:#5aa8c5;stroke-width:2px;}.b{fill:#f5f5f5;}.c{stroke:#f2f2f2;}.d{fill:#e0e0e0;}.e{fill:#e8c918;stroke:#e6c62b;}.f{fill:#ead266;}.f,.j{opacity:0.724;mix-blend-mode:overlay;isolation:isolate;}.g,.k,.r{fill:none;}.g,.k{stroke:#fff;stroke-linecap:round;stroke-width:3px;}.g{opacity:0.5;}.h{fill:#e9cc27;opacity:0.2;}.i{fill:#ededed;stroke:#e2e2e2;}.j{fill:#dedede;}.l{fill:#bebebe;opacity:0.099;}.m,.n{fill:#2eaac9;}.m{font-size:14px;letter-spacing:0.05em;}.m,.p{font-family:NotoSansCJKkr-Bold, Noto Sans CJK KR;font-weight:700;}.o{fill:#44b5cf;font-size:6px;font-family:NotoSansCJKkr-Medium, Noto Sans CJK KR;font-weight:500;letter-spacing:-0.02em;}.q{stroke:none;}</style></defs><g transform="translate(9565 16981)"><g class="a" transform="translate(-9565 -16981)"><rect class="q" width="535" height="332" rx="20"/><rect class="r" x="1" y="1" width="533" height="330" rx="19"/></g><rect class="b" width="231" height="12" rx="6" transform="translate(-9296 -16765)"/><rect class="b" width="167" height="13" rx="6.5" transform="translate(-9497 -16711)"/><g class="c" transform="translate(-9497 -16948)"><circle class="q" cx="22" cy="22" r="22"/><circle class="r" cx="22" cy="22" r="21.5"/></g><g class="c" transform="translate(-9497 -16892)"><circle class="q" cx="22" cy="22" r="22"/><circle class="r" cx="22" cy="22" r="21.5"/></g><g class="c" transform="translate(-9497 -16836)"><circle class="q" cx="22" cy="22" r="22"/><circle class="r" cx="22" cy="22" r="21.5"/></g><g class="c" transform="translate(-9304 -16726)"><circle class="q" cx="22" cy="22" r="22"/><circle class="r" cx="22" cy="22" r="21.5"/></g><g class="c" transform="translate(-9433 -16948)"><circle class="q" cx="22" cy="22" r="22"/><circle class="r" cx="22" cy="22" r="21.5"/></g><g class="c" transform="translate(-9433 -16892)"><circle class="q" cx="22" cy="22" r="22"/><circle class="r" cx="22" cy="22" r="21.5"/></g><g class="c" transform="translate(-9433 -16836)"><circle class="q" cx="22" cy="22" r="22"/><circle class="r" cx="22" cy="22" r="21.5"/></g><g class="c" transform="translate(-9240 -16726)"><circle class="q" cx="22" cy="22" r="22"/><circle class="r" cx="22" cy="22" r="21.5"/></g><g class="c" transform="translate(-9366 -16948)"><circle class="q" cx="22" cy="22" r="22"/><circle class="r" cx="22" cy="22" r="21.5"/></g><g class="c" transform="translate(-9366 -16892)"><circle class="q" cx="22" cy="22" r="22"/><circle class="r" cx="22" cy="22" r="21.5"/></g><g class="c" transform="translate(-9366 -16836)"><circle class="q" cx="22" cy="22" r="22"/><circle class="r" cx="22" cy="22" r="21.5"/></g><g class="c" transform="translate(-9173 -16726)"><circle class="q" cx="22" cy="22" r="22"/><circle class="r" cx="22" cy="22" r="21.5"/></g><g class="c" transform="translate(-9302 -16948)"><circle class="q" cx="22" cy="22" r="22"/><circle class="r" cx="22" cy="22" r="21.5"/></g><g class="c" transform="translate(-9302 -16892)"><circle class="q" cx="22" cy="22" r="22"/><circle class="r" cx="22" cy="22" r="21.5"/></g><g class="c" transform="translate(-9302 -16836)"><circle class="q" cx="22" cy="22" r="22"/><circle class="r" cx="22" cy="22" r="21.5"/></g><g class="c" transform="translate(-9109 -16726)"><circle class="q" cx="22" cy="22" r="22"/><circle class="r" cx="22" cy="22" r="21.5"/></g><g class="c" transform="translate(-9237 -16948)"><circle class="q" cx="22" cy="22" r="22"/><circle class="r" cx="22" cy="22" r="21.5"/></g><g class="c" transform="translate(-9237 -16892)"><circle class="q" cx="22" cy="22" r="22"/><circle class="r" cx="22" cy="22" r="21.5"/></g><g class="c" transform="translate(-9237 -16836)"><circle class="q" cx="22" cy="22" r="22"/><circle class="r" cx="22" cy="22" r="21.5"/></g><g class="c" transform="translate(-9497 -16780)"><circle class="q" cx="22" cy="22" r="22"/><circle class="r" cx="22" cy="22" r="21.5"/></g><g class="c" transform="translate(-9173 -16948)"><circle class="q" cx="22" cy="22" r="22"/><circle class="r" cx="22" cy="22" r="21.5"/></g><g class="c" transform="translate(-9173 -16892)"><circle class="q" cx="22" cy="22" r="22"/><circle class="r" cx="22" cy="22" r="21.5"/></g><g class="c" transform="translate(-9173 -16836)"><circle class="q" cx="22" cy="22" r="22"/><circle class="r" cx="22" cy="22" r="21.5"/></g><g class="c" transform="translate(-9433 -16780)"><circle class="q" cx="22" cy="22" r="22"/><circle class="r" cx="22" cy="22" r="21.5"/></g><g class="c" transform="translate(-9109 -16948)"><circle class="q" cx="22" cy="22" r="22"/><circle class="r" cx="22" cy="22" r="21.5"/></g><g class="c" transform="translate(-9109 -16892)"><circle class="q" cx="22" cy="22" r="22"/><circle class="r" cx="22" cy="22" r="21.5"/></g><g class="c" transform="translate(-9109 -16836)"><circle class="q" cx="22" cy="22" r="22"/><circle class="r" cx="22" cy="22" r="21.5"/></g><g class="c" transform="translate(-9369 -16780)"><circle class="q" cx="22" cy="22" r="22"/><circle class="r" cx="22" cy="22" r="21.5"/></g><g transform="translate(-9445 -16931)"><path class="d" d="M5.5,0,11,6H0Z" transform="translate(199 221) rotate(90)"/><path class="d" d="M5.5,0,11,6H0Z" transform="translate(263 221) rotate(90)"/><path class="d" d="M5.5,0,11,7H0Z" transform="translate(328 221) rotate(90)"/><path class="d" d="M5.5,0,11,7H0Z" transform="translate(7) rotate(90)"/><path class="d" d="M5.5,0,11,7H0Z" transform="translate(71) rotate(90)"/><path class="d" d="M5.5,0,11,6H0Z" transform="translate(135) rotate(90)"/><path class="d" d="M5.5,0,11,6H0Z" transform="translate(199) rotate(90)"/><path class="d" d="M5.5,0,11,6H0Z" transform="translate(263) rotate(90)"/><path class="d" d="M5.5,0,11,7H0Z" transform="translate(328) rotate(90)"/><path class="d" d="M5.5,0,11,7H0Z" transform="translate(7 56) rotate(90)"/><path class="d" d="M5.5,0,11,7H0Z" transform="translate(71 56) rotate(90)"/><path class="d" d="M5.5,0,11,6H0Z" transform="translate(135 56) rotate(90)"/><path class="d" d="M5.5,0,11,6H0Z" transform="translate(199 56) rotate(90)"/><path class="d" d="M5.5,0,11,6H0Z" transform="translate(263 56) rotate(90)"/><path class="d" d="M5.5,0,11,7H0Z" transform="translate(328 56) rotate(90)"/><path class="d" d="M5.5,0,11,7H0Z" transform="translate(7 111) rotate(90)"/><path class="d" d="M5.5,0,11,7H0Z" transform="translate(71 111) rotate(90)"/><path class="d" d="M5.5,0,11,6H0Z" transform="translate(135 111) rotate(90)"/><path class="d" d="M5.5,0,11,6H0Z" transform="translate(199 111) rotate(90)"/><path class="d" d="M5.5,0,11,6H0Z" transform="translate(263 111) rotate(90)"/><path class="d" d="M5.5,0,11,7H0Z" transform="translate(328 111) rotate(90)"/><path class="d" d="M5.5,0,11,7H0Z" transform="translate(7 166) rotate(90)"/><path class="d" d="M5.5,0,11,7H0Z" transform="translate(71 166) rotate(90)"/></g><g transform="translate(-9494 -16945)"><g class="e" transform="translate(0)"><circle class="q" cx="19.5" cy="19.5" r="19.5"/><circle class="r" cx="19.5" cy="19.5" r="19"/></g><circle class="f" cx="17.5" cy="17.5" r="17.5" transform="translate(2 2)"/><path class="g" d="M0,7.939S3.945-1.43,17.125.189" transform="translate(13.062 0.741) rotate(24)"/><rect class="h" width="37" height="6" transform="translate(1 17)"/></g><g transform="translate(-9494 -16889)"><g class="e" transform="translate(0)"><circle class="q" cx="19.5" cy="19.5" r="19.5"/><circle class="r" cx="19.5" cy="19.5" r="19"/></g><circle class="f" cx="17.5" cy="17.5" r="17.5" transform="translate(2 2)"/><path class="g" d="M0,7.939S3.945-1.43,17.125.189" transform="translate(13.062 0.741) rotate(24)"/><rect class="h" width="37" height="6" transform="translate(1 17)"/></g><g transform="translate(-9494 -16833)"><g class="e" transform="translate(0)"><circle class="q" cx="19.5" cy="19.5" r="19.5"/><circle class="r" cx="19.5" cy="19.5" r="19"/></g><circle class="f" cx="17.5" cy="17.5" r="17.5" transform="translate(2 2)"/><path class="g" d="M0,7.939S3.945-1.43,17.125.189" transform="translate(13.062 0.741) rotate(24)"/><rect class="h" width="37" height="6" transform="translate(1 17)"/></g><g transform="translate(-9301 -16723)"><g class="i" transform="translate(0)"><circle class="q" cx="19.5" cy="19.5" r="19.5"/><circle class="r" cx="19.5" cy="19.5" r="19"/></g><circle class="j" cx="17.5" cy="17.5" r="17.5" transform="translate(2 2)"/><path class="k" d="M0,7.939S3.945-1.43,17.125.189" transform="translate(13.062 0.741) rotate(24)"/><rect class="l" width="37" height="6" transform="translate(1 17)"/></g><g transform="translate(-9237 -16723)"><g class="i" transform="translate(0)"><circle class="q" cx="19.5" cy="19.5" r="19.5"/><circle class="r" cx="19.5" cy="19.5" r="19"/></g><circle class="j" cx="17.5" cy="17.5" r="17.5" transform="translate(2 2)"/><path class="k" d="M0,7.939S3.945-1.43,17.125.189" transform="translate(13.062 0.741) rotate(24)"/><rect class="l" width="37" height="6" transform="translate(1 17)"/></g><g transform="translate(-9170 -16723)"><g class="i" transform="translate(0)"><circle class="q" cx="19.5" cy="19.5" r="19.5"/><circle class="r" cx="19.5" cy="19.5" r="19"/></g><circle class="j" cx="17.5" cy="17.5" r="17.5" transform="translate(2 2)"/><path class="k" d="M0,7.939S3.945-1.43,17.125.189" transform="translate(13.062 0.741) rotate(24)"/><rect class="l" width="37" height="6" transform="translate(1 17)"/></g><g transform="translate(-9106 -16723)"><g class="i" transform="translate(0)"><circle class="q" cx="19.5" cy="19.5" r="19.5"/><circle class="r" cx="19.5" cy="19.5" r="19"/></g><circle class="j" cx="17.5" cy="17.5" r="17.5" transform="translate(2 2)"/><path class="k" d="M0,7.939S3.945-1.43,17.125.189" transform="translate(13.062 0.741) rotate(24)"/><rect class="l" width="37" height="6" transform="translate(1 17)"/></g><g transform="translate(-9430 -16945)"><g class="e" transform="translate(0)"><circle class="q" cx="19.5" cy="19.5" r="19.5"/><circle class="r" cx="19.5" cy="19.5" r="19"/></g><circle class="f" cx="17.5" cy="17.5" r="17.5" transform="translate(2 2)"/><path class="g" d="M0,7.939S3.945-1.43,17.125.189" transform="translate(13.062 0.741) rotate(24)"/><rect class="h" width="37" height="6" transform="translate(1 17)"/></g><g transform="translate(-9430 -16889)"><g class="e" transform="translate(0)"><circle class="q" cx="19.5" cy="19.5" r="19.5"/><circle class="r" cx="19.5" cy="19.5" r="19"/></g><circle class="f" cx="17.5" cy="17.5" r="17.5" transform="translate(2 2)"/><path class="g" d="M0,7.939S3.945-1.43,17.125.189" transform="translate(13.062 0.741) rotate(24)"/><rect class="h" width="37" height="6" transform="translate(1 17)"/></g><g transform="translate(-9430 -16833)"><g class="e" transform="translate(0)"><circle class="q" cx="19.5" cy="19.5" r="19.5"/><circle class="r" cx="19.5" cy="19.5" r="19"/></g><circle class="f" cx="17.5" cy="17.5" r="17.5" transform="translate(2 2)"/><path class="g" d="M0,7.939S3.945-1.43,17.125.189" transform="translate(13.062 0.741) rotate(24)"/><rect class="h" width="37" height="6" transform="translate(1 17)"/></g><g transform="translate(-9363 -16945)"><g class="e" transform="translate(0)"><circle class="q" cx="19.5" cy="19.5" r="19.5"/><circle class="r" cx="19.5" cy="19.5" r="19"/></g><circle class="f" cx="17.5" cy="17.5" r="17.5" transform="translate(2 2)"/><path class="g" d="M0,7.939S3.945-1.43,17.125.189" transform="translate(13.062 0.741) rotate(24)"/><rect class="h" width="37" height="6" transform="translate(1 17)"/></g><g transform="translate(-9363 -16889)"><g class="e" transform="translate(0)"><circle class="q" cx="19.5" cy="19.5" r="19.5"/><circle class="r" cx="19.5" cy="19.5" r="19"/></g><circle class="f" cx="17.5" cy="17.5" r="17.5" transform="translate(2 2)"/><path class="g" d="M0,7.939S3.945-1.43,17.125.189" transform="translate(13.062 0.741) rotate(24)"/><rect class="h" width="37" height="6" transform="translate(1 17)"/></g><g transform="translate(-9363 -16833)"><g class="e" transform="translate(0)"><circle class="q" cx="19.5" cy="19.5" r="19.5"/><circle class="r" cx="19.5" cy="19.5" r="19"/></g><circle class="f" cx="17.5" cy="17.5" r="17.5" transform="translate(2 2)"/><path class="g" d="M0,7.939S3.945-1.43,17.125.189" transform="translate(13.062 0.741) rotate(24)"/><rect class="h" width="37" height="6" transform="translate(1 17)"/></g><g transform="translate(-9299 -16945)"><g class="e" transform="translate(0)"><circle class="q" cx="19.5" cy="19.5" r="19.5"/><circle class="r" cx="19.5" cy="19.5" r="19"/></g><circle class="f" cx="17.5" cy="17.5" r="17.5" transform="translate(2 2)"/><path class="g" d="M0,7.939S3.945-1.43,17.125.189" transform="translate(13.062 0.741) rotate(24)"/><rect class="h" width="37" height="6" transform="translate(1 17)"/></g><g transform="translate(-9299 -16889)"><g class="e" transform="translate(0)"><circle class="q" cx="19.5" cy="19.5" r="19.5"/><circle class="r" cx="19.5" cy="19.5" r="19"/></g><circle class="f" cx="17.5" cy="17.5" r="17.5" transform="translate(2 2)"/><path class="g" d="M0,7.939S3.945-1.43,17.125.189" transform="translate(13.062 0.741) rotate(24)"/><rect class="h" width="37" height="6" transform="translate(1 17)"/></g><g transform="translate(-9299 -16833)"><g class="e" transform="translate(0)"><circle class="q" cx="19.5" cy="19.5" r="19.5"/><circle class="r" cx="19.5" cy="19.5" r="19"/></g><circle class="f" cx="17.5" cy="17.5" r="17.5" transform="translate(2 2)"/><path class="g" d="M0,7.939S3.945-1.43,17.125.189" transform="translate(13.062 0.741) rotate(24)"/><rect class="h" width="37" height="6" transform="translate(1 17)"/></g><g transform="translate(-9235 -16945)"><g class="e" transform="translate(0)"><circle class="q" cx="19.5" cy="19.5" r="19.5"/><circle class="r" cx="19.5" cy="19.5" r="19"/></g><circle class="f" cx="17.5" cy="17.5" r="17.5" transform="translate(2 2)"/><path class="g" d="M0,7.939S3.945-1.43,17.125.189" transform="translate(13.062 0.741) rotate(24)"/><rect class="h" width="37" height="6" transform="translate(1 17)"/></g><g transform="translate(-9235 -16889)"><g class="e" transform="translate(0)"><circle class="q" cx="19.5" cy="19.5" r="19.5"/><circle class="r" cx="19.5" cy="19.5" r="19"/></g><circle class="f" cx="17.5" cy="17.5" r="17.5" transform="translate(2 2)"/><path class="g" d="M0,7.939S3.945-1.43,17.125.189" transform="translate(13.062 0.741) rotate(24)"/><rect class="h" width="37" height="6" transform="translate(1 17)"/></g><g transform="translate(-9235 -16833)"><g class="e" transform="translate(0)"><circle class="q" cx="19.5" cy="19.5" r="19.5"/><circle class="r" cx="19.5" cy="19.5" r="19"/></g><circle class="f" cx="17.5" cy="17.5" r="17.5" transform="translate(2 2)"/><path class="g" d="M0,7.939S3.945-1.43,17.125.189" transform="translate(13.062 0.741) rotate(24)"/><rect class="h" width="37" height="6" transform="translate(1 17)"/></g><g transform="translate(-9495 -16777)"><g class="e" transform="translate(0)"><circle class="q" cx="19.5" cy="19.5" r="19.5"/><circle class="r" cx="19.5" cy="19.5" r="19"/></g><circle class="f" cx="17.5" cy="17.5" r="17.5" transform="translate(2 2)"/><path class="g" d="M0,7.939S3.945-1.43,17.125.189" transform="translate(13.062 0.741) rotate(24)"/><rect class="h" width="37" height="6" transform="translate(1 17)"/></g><g transform="translate(-9170 -16945)"><g class="e" transform="translate(0)"><circle class="q" cx="19.5" cy="19.5" r="19.5"/><circle class="r" cx="19.5" cy="19.5" r="19"/></g><circle class="f" cx="17.5" cy="17.5" r="17.5" transform="translate(2 2)"/><path class="g" d="M0,7.939S3.945-1.43,17.125.189" transform="translate(13.062 0.741) rotate(24)"/><rect class="h" width="37" height="6" transform="translate(1 17)"/></g><g transform="translate(-9170 -16889)"><g class="e" transform="translate(0)"><circle class="q" cx="19.5" cy="19.5" r="19.5"/><circle class="r" cx="19.5" cy="19.5" r="19"/></g><circle class="f" cx="17.5" cy="17.5" r="17.5" transform="translate(2 2)"/><path class="g" d="M0,7.939S3.945-1.43,17.125.189" transform="translate(13.062 0.741) rotate(24)"/><rect class="h" width="37" height="6" transform="translate(1 17)"/></g><g transform="translate(-9170 -16833)"><g class="e" transform="translate(0)"><circle class="q" cx="19.5" cy="19.5" r="19.5"/><circle class="r" cx="19.5" cy="19.5" r="19"/></g><circle class="f" cx="17.5" cy="17.5" r="17.5" transform="translate(2 2)"/><path class="g" d="M0,7.939S3.945-1.43,17.125.189" transform="translate(13.062 0.741) rotate(24)"/><rect class="h" width="37" height="6" transform="translate(1 17)"/></g><g transform="translate(-9430 -16777)"><g class="e" transform="translate(0)"><circle class="q" cx="19.5" cy="19.5" r="19.5"/><circle class="r" cx="19.5" cy="19.5" r="19"/></g><circle class="f" cx="17.5" cy="17.5" r="17.5" transform="translate(2 2)"/><path class="g" d="M0,7.939S3.945-1.43,17.125.189" transform="translate(13.062 0.741) rotate(24)"/><rect class="h" width="37" height="6" transform="translate(1 17)"/></g><g transform="translate(-9106 -16945)"><g class="e" transform="translate(0)"><circle class="q" cx="19.5" cy="19.5" r="19.5"/><circle class="r" cx="19.5" cy="19.5" r="19"/></g><circle class="f" cx="17.5" cy="17.5" r="17.5" transform="translate(2 2)"/><path class="g" d="M0,7.939S3.945-1.43,17.125.189" transform="translate(13.062 0.741) rotate(24)"/><rect class="h" width="37" height="6" transform="translate(1 17)"/></g><g transform="translate(-9106 -16889)"><g class="e" transform="translate(0)"><circle class="q" cx="19.5" cy="19.5" r="19.5"/><circle class="r" cx="19.5" cy="19.5" r="19"/></g><circle class="f" cx="17.5" cy="17.5" r="17.5" transform="translate(2 2)"/><path class="g" d="M0,7.939S3.945-1.43,17.125.189" transform="translate(13.062 0.741) rotate(24)"/><rect class="h" width="37" height="6" transform="translate(1 17)"/></g><g transform="translate(-9106 -16833)"><g class="e" transform="translate(0)"><circle class="q" cx="19.5" cy="19.5" r="19.5"/><circle class="r" cx="19.5" cy="19.5" r="19"/></g><circle class="f" cx="17.5" cy="17.5" r="17.5" transform="translate(2 2)"/><path class="g" d="M0,7.939S3.945-1.43,17.125.189" transform="translate(13.062 0.741) rotate(24)"/><rect class="h" width="37" height="6" transform="translate(1 17)"/></g><g transform="translate(-9366 -16777)"><g class="e" transform="translate(0)"><circle class="q" cx="19.5" cy="19.5" r="19.5"/><circle class="r" cx="19.5" cy="19.5" r="19"/></g><circle class="f" cx="17.5" cy="17.5" r="17.5" transform="translate(2 2)"/><path class="g" d="M0,7.939S3.945-1.43,17.125.189" transform="translate(13.062 0.741) rotate(24)"/><rect class="h" width="37" height="6" transform="translate(1 17)"/></g><text class="m" transform="translate(-9532.5 -16815) rotate(90)"><tspan x="-30.912" y="0">LOT/EXP</tspan></text><g transform="translate(-9269.399 -16786.547)"><g transform="translate(0 0)"><g transform="translate(32.063 2.048)"><path class="n" d="M214.882,265.026a.927.927,0,0,1-.592-.16.677.677,0,0,1-.2-.555v-2.294h.611a.963.963,0,0,1,.385.066.591.591,0,0,1,.353.4.927.927,0,0,1,.033.236v1.266h4.476v1.044h-2.266v.865h3.122v1.044h-7.644v-1.044h3.122v-.865Zm5.049,5.792H219.4a1,1,0,0,1-.4-.066.7.7,0,0,1-.244-.169.546.546,0,0,1-.127-.226.9.9,0,0,1-.033-.235v-1.476H214v-1.063H219.1a.815.815,0,0,1,.653.212.98.98,0,0,1,.174.635Z" transform="translate(-213.161 -261.895)"/><path class="n" d="M244.332,262.828a2.175,2.175,0,0,0,.48,1.429,2.953,2.953,0,0,0,1.307.884v1.147a4.622,4.622,0,0,1-1.542-.766,3.5,3.5,0,0,1-.931-1.039,3.719,3.719,0,0,1-.912,1.091,4.507,4.507,0,0,1-1.533.818v-1.147a3.512,3.512,0,0,0,1.289-.987,2.244,2.244,0,0,0,.46-1.42v-1.072h.874q.329,0,.419.146a.683.683,0,0,1,.089.362Zm-1.815,3.8h.8q.338,0,.428.141a.674.674,0,0,1,.09.367v.489h3.159v-1h1.316v2.821a1.036,1.036,0,0,1-.254.757,1.108,1.108,0,0,1-.818.259h-3.648a1.1,1.1,0,0,1-.818-.263,1.156,1.156,0,0,1-.254-.827Zm4.476,2.793v-.781h-3.159v.781Zm0-7.8h.573a.976.976,0,0,1,.386.066.541.541,0,0,1,.226.169.623.623,0,0,1,.1.226,1.041,1.041,0,0,1,.028.235V266.2h-1.316Z" transform="translate(-232.664 -261.615)"/><path class="n" d="M268.485,262.538h4.57V263.6h-1.57v1a3.257,3.257,0,0,0,.4,1.6,3.323,3.323,0,0,0,1.354,1.26v1.316a6.2,6.2,0,0,1-.785-.437,5.509,5.509,0,0,1-.705-.545,4.55,4.55,0,0,1-.569-.62,2.765,2.765,0,0,1-.376-.663,3.2,3.2,0,0,1-.418.677,5.062,5.062,0,0,1-.607.639,5.981,5.981,0,0,1-.714.546,4.529,4.529,0,0,1-.743.395l-.009-1.307a3.261,3.261,0,0,0,1.345-1.218,3.151,3.151,0,0,0,.432-1.622V263.6h-1.608Zm5.4-.583h.6a.678.678,0,0,1,.574.212.77.77,0,0,1,.16.475v2.6h1.335V266.3h-1.335v4.213h-.536a1,1,0,0,1-.395-.066.739.739,0,0,1-.244-.164.508.508,0,0,1-.127-.226.956.956,0,0,1-.033-.24Z" transform="translate(-251.523 -261.851)"/></g><g transform="translate(0 0)"><g transform="translate(15.801 2.019)"><path class="n" d="M162.964,266.909h1.608v.319a1.682,1.682,0,0,1-.393,1.166,1.567,1.567,0,0,1-1.215.491,1.429,1.429,0,0,1-1.092-.454c-.319-.368-.417-.8-.417-2.467s.1-2.086.417-2.455a1.436,1.436,0,0,1,1.092-.466,1.474,1.474,0,0,1,1.571,1.276h1.718a3.358,3.358,0,0,0-5.621-1.878c-.871.871-.884,1.853-.884,3.522s.012,2.651.884,3.522a3.487,3.487,0,0,0,4.8-.074,3.408,3.408,0,0,0,.835-2.663v-1.276h-3.3Z" transform="translate(-159.748 -261.521)"/><path class="n" d="M188.549,268.885a1.41,1.41,0,0,1-1.092-.454c-.319-.368-.43-.8-.43-2.467s.111-2.1.43-2.467a1.409,1.409,0,0,1,1.092-.454,1.432,1.432,0,0,1,1.461,1.24h1.743a3.077,3.077,0,0,0-3.2-2.762,3.16,3.16,0,0,0-2.344.921c-.871.871-.884,1.853-.884,3.522s.012,2.651.884,3.522a3.16,3.16,0,0,0,2.344.92,3.084,3.084,0,0,0,3.2-2.762h-1.731A1.444,1.444,0,0,1,188.549,268.885Z" transform="translate(-177.535 -261.521)"/></g><path class="n" d="M119.415,259.565l-2.666-.581-.582-2.6a1.817,1.817,0,0,0-3.575,0l-.582,2.6-2.666.581a1.815,1.815,0,0,0,0,3.572l2.666.582.582,2.6a1.817,1.817,0,0,0,3.575,0l.58-2.6,2.667-.587a1.815,1.815,0,0,0,0-3.572Zm-3.8,6.634,0,.012,0,.012a1.252,1.252,0,0,1-2.464,0l0-.012,0-.012-.582-2.6-.078-.352-.352-.077-2.666-.581-.01,0-.01,0a1.251,1.251,0,0,1,0-2.462l.01,0,.01,0,2.505-.546a1.885,1.885,0,0,0,.344,1.147,2.732,2.732,0,0,0,2.038.909,2.271,2.271,0,0,1,1.65.688,1.653,1.653,0,0,1,.184,1.34Zm3.7-3.617-.011,0-.011,0-2.5.551a1.889,1.889,0,0,0-.343-1.152,2.733,2.733,0,0,0-2.038-.909,2.27,2.27,0,0,1-1.649-.688,1.647,1.647,0,0,1-.185-1.335l.57-2.55,0-.012,0-.012a1.252,1.252,0,0,1,2.464,0l0,.012,0,.012.582,2.6.079.351.352.077,2.666.582.01,0,.01,0a1.251,1.251,0,0,1,0,2.462Z" transform="translate(-107.853 -254.889)"/></g></g><g transform="translate(0 16.329)"><g transform="translate(108.39 21.047)"><path class="n" d="M388.9,587.639h1.735v2.276h.55v-4.1a.562.562,0,0,0-.059-.258.26.26,0,0,0-.255-.114h-.237v1.735H388.9Z" transform="translate(-385.412 -585.447)"/><path class="n" d="M386.243,587.847a3.012,3.012,0,0,0,.821,1,4.741,4.741,0,0,0,1.193.69v-.516a3.747,3.747,0,0,1-.681-.373,2.916,2.916,0,0,1-.55-.491,2.29,2.29,0,0,1-.368-.584,1.665,1.665,0,0,1-.135-.669v-.652h1.65V585.8h-3.859v.457h1.642v.661a1.9,1.9,0,0,1-.135.715,2.241,2.241,0,0,1-.368.609,2.87,2.87,0,0,1-.546.5,3.562,3.562,0,0,1-.677.373v.516a4.518,4.518,0,0,0,1.193-.7A2.981,2.981,0,0,0,386.243,587.847Z" transform="translate(-384.229 -585.536)"/><path class="n" d="M390.247,592.582a1.239,1.239,0,0,0-.419-.5,2.155,2.155,0,0,0-.736-.322,4.483,4.483,0,0,0-1.092-.114,4.539,4.539,0,0,0-1.1.114,2.1,2.1,0,0,0-.736.322,1.252,1.252,0,0,0-.414.5,1.7,1.7,0,0,0,0,1.312,1.248,1.248,0,0,0,.414.5,2.115,2.115,0,0,0,.736.322,4.577,4.577,0,0,0,1.1.114,4.519,4.519,0,0,0,1.092-.114,2.167,2.167,0,0,0,.736-.322,1.235,1.235,0,0,0,.419-.5,1.7,1.7,0,0,0,0-1.312Zm-.888,1.527a3.625,3.625,0,0,1-2.71,0,1.036,1.036,0,0,1,0-1.743,3.636,3.636,0,0,1,2.71,0,1.034,1.034,0,0,1,0,1.743Z" transform="translate(-384.582 -587.018)"/></g><g transform="translate(0 0.188)"><path class="n" d="M245.939,575.828q1.995,0,4.376-.193a39.977,39.977,0,0,0,4.505-.611v2.542q-.869.194-1.995.354t-2.317.29q-1.192.129-2.365.209T246,578.5H241.53a2.639,2.639,0,0,1-1.85-.579,2.387,2.387,0,0,1-.627-1.834V559.192h13.031v2.671h-9.75v13.965Zm14.544,10.361h-1.158a2.636,2.636,0,0,1-1.046-.177,1.591,1.591,0,0,1-.949-1.062,2.4,2.4,0,0,1-.1-.659v-26.74h1.351a1.7,1.7,0,0,1,1.512.579,2.167,2.167,0,0,1,.386,1.223Z" transform="translate(-239.053 -557.519)"/><path class="n" d="M280.913,578.648q-3.861,0-5.615-2.413t-1.754-7.5q0-5.052,1.754-7.465t5.615-2.413a6.62,6.62,0,0,1,5.309,2.059q1.769,2.061,2.027,6.4h5.182v-9.814h1.48a1.615,1.615,0,0,1,1.432.547,2.418,2.418,0,0,1,.37,1.383v26.74h-1.159a2.63,2.63,0,0,1-1.045-.177,1.834,1.834,0,0,1-.644-.45,1.583,1.583,0,0,1-.338-.612,2.393,2.393,0,0,1-.1-.659V570.09h-5.182a11.253,11.253,0,0,1-1.914,6.4Q284.646,578.648,280.913,578.648Zm0-2.831a4.447,4.447,0,0,0,2.059-.418,3.015,3.015,0,0,0,1.271-1.287,6.7,6.7,0,0,0,.659-2.2,22.423,22.423,0,0,0,.193-3.169,19.215,19.215,0,0,0-.242-3.314,6.281,6.281,0,0,0-.756-2.188,2.943,2.943,0,0,0-1.3-1.19,5.184,5.184,0,0,0-3.765,0,2.944,2.944,0,0,0-1.3,1.19,6.3,6.3,0,0,0-.756,2.188,19.3,19.3,0,0,0-.241,3.314,19.53,19.53,0,0,0,.241,3.347,6.288,6.288,0,0,0,.756,2.188,2.937,2.937,0,0,0,1.3,1.191A4.574,4.574,0,0,0,280.913,575.817Z" transform="translate(-247.793 -557.508)"/><path class="n" d="M322.244,559.181a2.195,2.195,0,0,1,1.722.5,2.6,2.6,0,0,1,.4,1.625v14.963a3.1,3.1,0,0,1-.5,1.851,2.227,2.227,0,0,1-1.914.691h-8.978a2.553,2.553,0,0,1-1.577-.418,1.8,1.8,0,0,1-.547-1.513v-17.7Zm-8.14,16.99h7.014V561.82H314.1Zm18.5,10.007h-1.159A2.63,2.63,0,0,1,330.4,586a1.59,1.59,0,0,1-.95-1.062,2.4,2.4,0,0,1-.1-.659V557.508h1.351a1.7,1.7,0,0,1,1.513.579,2.167,2.167,0,0,1,.387,1.222Z" transform="translate(-257.246 -557.508)"/></g><g transform="translate(82.129 0)"><path class="n" d="M363.211,573.7v6.433h-2.09V573.7H349.055v-1.739h24.87V573.7Zm-1.673-10.264a11.224,11.224,0,0,1-3.6,3.475,17.745,17.745,0,0,1-5.7,2.251v-1.9a15.715,15.715,0,0,0,3.3-1.142,11.974,11.974,0,0,0,2.59-1.658,6.949,6.949,0,0,0,1.689-2.076,5.115,5.115,0,0,0,.6-2.4v-2.733h1.062a.984.984,0,0,1,.965.432,2.105,2.105,0,0,1,.225.982v1.319a5.116,5.116,0,0,0,.6,2.4,6.925,6.925,0,0,0,1.689,2.076,11.977,11.977,0,0,0,2.591,1.658,15.682,15.682,0,0,0,3.3,1.142v1.9a17.72,17.72,0,0,1-5.694-2.251A11.225,11.225,0,0,1,361.538,563.433Zm9.492,22.519H354.556a2.337,2.337,0,0,1-1.254-.319,1.26,1.26,0,0,1-.515-1.16v-7.205h1.157q.933,0,.934.867v6.082h16.151Z" transform="translate(-349.055 -557.256)"/></g></g><g transform="translate(54.454 47.711)"><path class="n" d="M309.97,611.933a.653.653,0,0,1-.433-.124.53.53,0,0,1-.145-.422V605.61h2.049a3.254,3.254,0,0,1,1.034.137,1.831,1.831,0,0,1,.7.442,1.669,1.669,0,0,1,.322.446,2.36,2.36,0,0,1,.178.546,4.458,4.458,0,0,1,.078.686c.012.253.017.542.017.868,0,.342,0,.641-.017.9a4.588,4.588,0,0,1-.078.7,2.294,2.294,0,0,1-.182.554,1.955,1.955,0,0,1-.327.466,1.647,1.647,0,0,1-.715.447,2.913,2.913,0,0,1-.888.132Zm.314-.752h1.157a1.494,1.494,0,0,0,.661-.136,1.256,1.256,0,0,0,.463-.376,1.427,1.427,0,0,0,.243-.711,10.836,10.836,0,0,0,.054-1.215,9.51,9.51,0,0,0-.058-1.182,1.372,1.372,0,0,0-.248-.686,1.287,1.287,0,0,0-.475-.38,1.546,1.546,0,0,0-.674-.141h-1.124Z" transform="translate(-309.392 -605.61)"/><path class="n" d="M317.45,610.7a2.153,2.153,0,0,0,.1.624,1.083,1.083,0,0,0,1.1.732,1.7,1.7,0,0,0,.616-.1,1.419,1.419,0,0,0,.508-.351l.454.562a2.387,2.387,0,0,1-.682.447,2.3,2.3,0,0,1-.9.157,2.746,2.746,0,0,1-.781-.1,1.638,1.638,0,0,1-.624-.355,1.876,1.876,0,0,1-.488-.748,3.312,3.312,0,0,1-.182-1.178,2.563,2.563,0,0,1,.521-1.736,1.783,1.783,0,0,1,1.422-.57,1.891,1.891,0,0,1,.806.156,1.938,1.938,0,0,1,.574.405,1.582,1.582,0,0,1,.393.719,3.592,3.592,0,0,1,.111.909v.43Zm2.1-.661a2.879,2.879,0,0,0-.058-.47.994.994,0,0,0-.165-.356,1.037,1.037,0,0,0-.331-.293,1.087,1.087,0,0,0-.934-.012.934.934,0,0,0-.322.281,1.225,1.225,0,0,0-.194.372,2.36,2.36,0,0,0-.087.479Z" transform="translate(-311.648 -606.386)"/><path class="n" d="M326.148,612.709a.435.435,0,0,1-.471-.4,1.484,1.484,0,0,1-.549.343,2.525,2.525,0,0,1-.79.1,1.481,1.481,0,0,1-1.082-.372,1.323,1.323,0,0,1-.381-.992,1.293,1.293,0,0,1,.414-1,1.673,1.673,0,0,1,1.173-.381h1.182v-.281a.908.908,0,0,0-.243-.706.961.961,0,0,0-.665-.219,1.259,1.259,0,0,0-.632.149,3.575,3.575,0,0,0-.525.372l-.438-.57a2.75,2.75,0,0,1,.682-.471,2,2,0,0,1,.914-.207,1.931,1.931,0,0,1,1.327.409,1.483,1.483,0,0,1,.458,1.169v3.049Zm-.5-2.009h-1.1a.953.953,0,0,0-.608.169.614.614,0,0,0-.211.509.648.648,0,0,0,.2.537,1.029,1.029,0,0,0,.637.157,1.323,1.323,0,0,0,.636-.165,1.085,1.085,0,0,0,.446-.413Z" transform="translate(-313.627 -606.386)"/><path class="n" d="M330.5,612.709h-.364q-.5,0-.5-.43v-4.141h.843v.4c.077-.067.154-.128.231-.186a1.227,1.227,0,0,1,.252-.145,1.566,1.566,0,0,1,.306-.091,2.189,2.189,0,0,1,.4-.033,1.463,1.463,0,0,1,.607.124,2.19,2.19,0,0,1,.475.281l-.454.669a1.3,1.3,0,0,0-.356-.256,1.148,1.148,0,0,0-.5-.091.923.923,0,0,0-.669.265.913.913,0,0,0-.273.686Z" transform="translate(-315.75 -606.386)"/><path class="n" d="M333.383,614.317v-1.091h1.083v1.091Z" transform="translate(-316.928 -608.002)"/><path class="n" d="M341.323,609.854a1.116,1.116,0,0,0-.244-.789.857.857,0,0,0-.657-.261.934.934,0,0,0-.665.236,1.027,1.027,0,0,0-.252.781v2.893h-.388a.5.5,0,0,1-.364-.116.518.518,0,0,1-.116-.38v-4.075h.842v.372a1.578,1.578,0,0,1,.5-.319,2,2,0,0,1,.711-.1,1.449,1.449,0,0,1,.731.165,1.671,1.671,0,0,1,.516.488,1.721,1.721,0,0,1,.612-.5,2.009,2.009,0,0,1,.843-.157,1.5,1.5,0,0,1,.641.128,1.362,1.362,0,0,1,.467.347,1.511,1.511,0,0,1,.289.508,1.877,1.877,0,0,1,.1.612v3.025h-.4a.459.459,0,0,1-.359-.132.507.507,0,0,1-.12-.355v-2.364a1.456,1.456,0,0,0-.075-.5.855.855,0,0,0-.2-.326.757.757,0,0,0-.289-.178,1.04,1.04,0,0,0-.335-.054.9.9,0,0,0-.669.248,1.1,1.1,0,0,0-.248.8v2.859h-.38q-.488,0-.488-.455Z" transform="translate(-318.578 -606.39)"/><path class="n" d="M349.828,610.7a2.155,2.155,0,0,0,.1.624,1.083,1.083,0,0,0,1.1.732,1.7,1.7,0,0,0,.616-.1,1.419,1.419,0,0,0,.508-.351l.454.562a2.386,2.386,0,0,1-.682.447,2.3,2.3,0,0,1-.9.157,2.746,2.746,0,0,1-.781-.1,1.639,1.639,0,0,1-.624-.355,1.874,1.874,0,0,1-.488-.748,3.311,3.311,0,0,1-.182-1.178,2.564,2.564,0,0,1,.521-1.736,1.783,1.783,0,0,1,1.422-.57,1.891,1.891,0,0,1,.806.156,1.938,1.938,0,0,1,.574.405,1.583,1.583,0,0,1,.393.719,3.591,3.591,0,0,1,.111.909v.43Zm2.1-.661a2.962,2.962,0,0,0-.058-.47.994.994,0,0,0-.165-.356,1.033,1.033,0,0,0-.331-.293.956.956,0,0,0-.479-.112.967.967,0,0,0-.455.1.934.934,0,0,0-.322.281,1.225,1.225,0,0,0-.194.372,2.364,2.364,0,0,0-.087.479Z" transform="translate(-321.818 -606.386)"/><path class="n" d="M361.425,611.387a1.234,1.234,0,0,1-.136.587,1.249,1.249,0,0,1-.376.429,1.689,1.689,0,0,1-.57.261,2.84,2.84,0,0,1-.72.087,3.206,3.206,0,0,1-.475-.034,2.262,2.262,0,0,1-.426-.108,2.627,2.627,0,0,1-.409-.19,3.2,3.2,0,0,1-.409-.281l.471-.628a2.8,2.8,0,0,0,.615.388,1.681,1.681,0,0,0,.632.132,1.118,1.118,0,0,0,.682-.162.557.557,0,0,0,.236-.483.743.743,0,0,0-.108-.418.716.716,0,0,0-.463-.235l-.827-.19a1.685,1.685,0,0,1-.855-.4,1.119,1.119,0,0,1-.26-.807,1.1,1.1,0,0,1,.425-.933,2.5,2.5,0,0,1,2.137-.153,2.6,2.6,0,0,1,.669.425l-.454.579a2.971,2.971,0,0,0-.479-.322,1.25,1.25,0,0,0-.6-.132,1.077,1.077,0,0,0-.628.141.448.448,0,0,0-.19.381,1.05,1.05,0,0,0,.016.194.331.331,0,0,0,.071.152.476.476,0,0,0,.157.12,1.193,1.193,0,0,0,.276.1l.777.182a3.527,3.527,0,0,1,.541.169,1.125,1.125,0,0,1,.377.248.988.988,0,0,1,.223.372A1.677,1.677,0,0,1,361.425,611.387Z" transform="translate(-324.63 -606.386)"/><path class="n" d="M367.738,610.412a5.856,5.856,0,0,1-.087.942,1.911,1.911,0,0,1-.289.741,1.409,1.409,0,0,1-.574.483,2.169,2.169,0,0,1-.934.174,2.214,2.214,0,0,1-.933-.17,1.388,1.388,0,0,1-.574-.475,1.867,1.867,0,0,1-.289-.739,5.337,5.337,0,0,1-.079-.955,5.219,5.219,0,0,1,.079-.942,1.9,1.9,0,0,1,.289-.739,1.376,1.376,0,0,1,.574-.479,2.214,2.214,0,0,1,.933-.169,2.244,2.244,0,0,1,.938.169,1.407,1.407,0,0,1,.583.479,1.859,1.859,0,0,1,.293.735A4.783,4.783,0,0,1,367.738,610.412Zm-.893,0a5.5,5.5,0,0,0-.033-.632,1.609,1.609,0,0,0-.136-.513.81.81,0,0,0-.3-.343.967.967,0,0,0-.525-.124.978.978,0,0,0-.537.128.793.793,0,0,0-.3.347,1.559,1.559,0,0,0-.124.512c-.016.2-.025.4-.025.624a5.691,5.691,0,0,0,.033.632,1.63,1.63,0,0,0,.137.512.839.839,0,0,0,.3.347,1.119,1.119,0,0,0,1.071-.016.9.9,0,0,0,.3-.372,1.551,1.551,0,0,0,.12-.516C366.838,610.806,366.845,610.61,366.845,610.412Z" transform="translate(-326.537 -606.386)"/><path class="n" d="M374.148,610.412a5.784,5.784,0,0,1-.086.942,1.921,1.921,0,0,1-.289.741,1.415,1.415,0,0,1-.575.483,2.166,2.166,0,0,1-.934.174,2.21,2.21,0,0,1-.934-.17,1.394,1.394,0,0,1-.575-.475,1.866,1.866,0,0,1-.289-.739,5.4,5.4,0,0,1-.078-.955,5.278,5.278,0,0,1,.078-.942,1.9,1.9,0,0,1,.289-.739,1.382,1.382,0,0,1,.575-.479,2.21,2.21,0,0,1,.934-.169,2.241,2.241,0,0,1,.938.169,1.406,1.406,0,0,1,.583.479,1.87,1.87,0,0,1,.294.735A4.84,4.84,0,0,1,374.148,610.412Zm-.892,0a5.66,5.66,0,0,0-.033-.632,1.645,1.645,0,0,0-.136-.513.807.807,0,0,0-.3-.343.965.965,0,0,0-.525-.124.976.976,0,0,0-.537.128.789.789,0,0,0-.3.347,1.544,1.544,0,0,0-.123.512c-.017.2-.025.4-.025.624a5.69,5.69,0,0,0,.033.632,1.629,1.629,0,0,0,.137.512.823.823,0,0,0,.3.347,1.119,1.119,0,0,0,1.071-.016.9.9,0,0,0,.3-.372,1.55,1.55,0,0,0,.12-.516C373.249,610.806,373.256,610.61,373.256,610.412Z" transform="translate(-328.551 -606.386)"/><path class="n" d="M379.833,609.779a1.049,1.049,0,0,0-.228-.719.823.823,0,0,0-.649-.257.892.892,0,0,0-1.025.992v2.918h-.4a.483.483,0,0,1-.359-.116.519.519,0,0,1-.112-.372v-4.083h.843v.388a1.278,1.278,0,0,1,.5-.322,1.967,1.967,0,0,1,.7-.116,1.8,1.8,0,0,1,.694.123,1.381,1.381,0,0,1,.5.343,1.5,1.5,0,0,1,.3.509,1.837,1.837,0,0,1,.1.62v3.025h-.364a.607.607,0,0,1-.372-.1.462.462,0,0,1-.132-.388Z" transform="translate(-330.648 -606.39)"/></g></g><text class="o" transform="translate(-9143.601 -16766.418)"><tspan x="0" y="0">에티닐에스트라디올</tspan><tspan class="p"><tspan x="0" y="8">0.015mg</tspan></tspan></text><text class="o" transform="translate(-9143.601 -16744.168)"><tspan x="0" y="0">게스토덴</tspan><tspan class="p"><tspan x="0" y="8">0.06mg</tspan></tspan></text></g></svg>